<svg xmlns="http://www.w3.org/2000/svg" viewBox="0 0 100 100" width="100%" height="100%">
  <circle cx="50" cy="50" r="46" fill="rgba(255,255,255,0.18)" stroke="rgba(255,255,255,0.5)" stroke-width="2.5"/>
  <!-- Head -->
  <circle cx="48" cy="20" r="7" fill="#ffffff"/>
  <!-- Torso -->
  <path d="M 34 33 L 62 33 L 59 62 L 37 62 Z" fill="#ffffff"/>
  <!-- Left Arm balanced -->
  <path d="M 35 34 L 24 45 L 28 54 L 32 52 L 29 46 L 37 38 Z" fill="#ffffff"/>
  <!-- Right Arm pointing / controlling -->
  <path d="M 61 34 L 72 43 L 78 50 L 74 53 L 69 46 L 60 38 Z" fill="#ffffff"/>
  <!-- Shorts -->
  <path d="M 37 62 L 59 62 L 61 76 L 50 76 L 48 71 L 46 76 L 35 76 Z" fill="#ffffff"/>
  <!-- Left Leg stepping -->
  <rect x="37" y="76" width="6" height="15" rx="3" fill="#ffffff"/>
  <!-- Right Leg resting near ball -->
  <path d="M 52 76 L 58 76 L 64 88 L 59 89 Z" fill="#ffffff"/>
  <!-- Football at feet -->
  <circle cx="73" cy="81" r="8" fill="#ffffff"/>
  <circle cx="73" cy="81" r="3.2" fill="#1b5e20"/>
  <circle cx="73" cy="74" r="1.5" fill="#1b5e20"/>
  <circle cx="79" cy="79" r="1.5" fill="#1b5e20"/>
  <circle cx="76" cy="87" r="1.5" fill="#1b5e20"/>
  <circle cx="68" cy="86" r="1.5" fill="#1b5e20"/>
  <!-- Jersey Number Slot -->
  
</svg>